<svg height="155.78667" id="svg2" version="1.1" viewBox="0 0 300.09332 155.78667" width="300.09332" xml:space="preserve" xmlns="http://www.w3.org/2000/svg" xmlns:cc="http://creativecommons.org/ns#" xmlns:dc="http://purl.org/dc/elements/1.1/" xmlns:rdf="http://www.w3.org/1999/02/22-rdf-syntax-ns#" xmlns:svg="http://www.w3.org/2000/svg"><metadata id="metadata8"><rdf:rdf><cc:work rdf:about=""><dc:format>image/svg+xml</dc:format><dc:type rdf:resource="http://purl.org/dc/dcmitype/StillImage"></dc:type></cc:work></rdf:rdf></metadata><defs id="defs6"></defs><g id="g10" transform="matrix(1.3333333,0,0,-1.3333333,0,155.78667)"><g id="g12" transform="scale(0.1)"><path d="m 519.449,732.34 c -0.953,51.098 -16.566,90.824 -46.844,119.211 -30.292,28.387 -72.386,42.582 -126.304,42.582 -51.102,0 -91.543,-14.68 -121.356,-44 -29.804,-29.34 -48.043,-68.617 -54.632,-117.793 z M 170.313,604.598 c 5.671,-51.086 25.546,-90.828 59.593,-119.215 34.071,-28.391 75.231,-42.582 123.489,-42.582 42.566,0 78.265,8.75 107.156,26.269 28.84,17.481 54.152,39.493 75.929,65.989 L 658.531,442.801 C 618.789,393.59 574.301,358.59 525.129,337.781 475.914,316.973 424.348,306.555 370.43,306.555 c -51.098,0 -99.36,8.515 -144.782,25.55 -45.406,17.032 -84.675,41.165 -117.793,72.387 C 74.7266,435.703 48.4766,473.324 29.0859,517.313 9.6875,561.309 0,610.27 0,664.211 c 0,53.934 9.6875,102.894 29.0859,146.894 19.3907,44.004 45.6407,81.61 78.7691,112.836 33.118,31.227 72.387,55.356 117.793,72.375 45.422,17.034 93.684,25.544 144.782,25.544 47.289,0 90.57,-8.28 129.847,-24.829 39.258,-16.566 72.86,-40.441 100.778,-71.672 27.886,-31.226 49.664,-69.781 65.273,-115.671 15.613,-45.907 23.43,-98.641 23.43,-158.254 V 604.598 H 170.313" id="path14" style="fill:#29459f;fill-opacity:1;fill-rule:nonzero;stroke:none"></path><path d="m 2080.37,664.211 c 0,26.484 -4.5,52.031 -13.48,76.629 -9,24.609 -22.24,46.355 -39.74,65.308 -17.52,18.903 -38.56,34.047 -63.16,45.403 -24.61,11.355 -52.52,17.035 -83.74,17.035 -31.21,0 -59.13,-5.68 -83.73,-17.035 -24.61,-11.356 -45.65,-26.5 -63.15,-45.403 -17.52,-18.953 -30.76,-40.699 -39.75,-65.308 -9,-24.598 -13.47,-50.145 -13.47,-76.629 0,-26.504 4.47,-52.051 13.47,-76.633 8.99,-24.633 22.23,-46.371 39.75,-65.293 17.5,-18.933 38.54,-34.066 63.15,-45.418 24.6,-11.359 52.52,-17.031 83.73,-17.031 31.22,0 59.13,5.672 83.74,17.031 24.6,11.352 45.64,26.485 63.16,45.418 17.5,18.922 30.74,40.66 39.74,65.293 8.98,24.582 13.48,50.129 13.48,76.633 z M 1515.5,1004.83 h 161.81 V 902.648 h 2.84 c 24.58,42.582 57.69,73.09 99.34,91.543 41.63,18.449 86.56,27.669 134.83,27.669 52.03,0 98.85,-9.22 140.5,-27.669 41.63,-18.453 77.11,-43.785 106.45,-75.929 29.31,-32.176 51.55,-70.032 66.69,-113.535 15.14,-43.536 22.72,-90.372 22.72,-140.516 0,-50.168 -8.05,-97.008 -24.13,-140.504 -16.1,-43.535 -38.56,-81.391 -67.41,-113.535 -28.88,-32.18 -63.65,-57.496 -104.32,-75.945 -40.68,-18.442 -85.15,-27.672 -133.41,-27.672 -31.22,0 -59.38,3.324 -84.44,9.933 -25.09,6.633 -47.08,15.133 -66,25.555 -18.93,10.398 -35.01,21.504 -48.26,33.344 -13.26,11.82 -24.13,23.429 -32.64,34.785 h -4.26 V 0 H 1515.5 v 1004.83" id="path16" style="fill:#29459f;fill-opacity:1;fill-rule:nonzero;stroke:none"></path><path d="m 1170.38,664.254 259.83,-340.637 h -207.2 L 1066.6,528.594 910.547,323.617 H 703.344 l 644.206,844.743 h 207.2 L 1170.38,664.254" id="path18" style="fill:#29459f;fill-opacity:1;fill-rule:nonzero;stroke:none"></path><path d="M 910.648,1004.83 H 703.43 L 913.082,729.617 1016.58,865.641 910.648,1004.83" id="path20" style="fill:#f47216;fill-opacity:1;fill-rule:nonzero;stroke:none"></path><path d="m 234.137,117.711 c 13.843,0 25.84,12.019 25.84,26.641 0,13.828 -11.997,25.316 -25.84,25.316 h -42.555 v -51.957 z m -76.758,78.328 c 0,2.613 2.098,4.969 4.965,4.969 h 74.66 c 31.336,0 56.937,-25.07 56.937,-56.137 0,-24.019 -15.945,-43.601 -38.644,-52.7421 l 35.758,-66.3203 c 1.832,-3.3867 0,-7.5703 -4.434,-7.5703 h -27.41 c -2.359,0 -3.676,1.3008 -4.188,2.3515 L 220.309,89.7813 H 191.324 V 23.1914 c 0,-2.6016 -2.355,-4.9531 -4.969,-4.9531 h -24.011 c -2.867,0 -4.965,2.3515 -4.965,4.9531 V 196.039" id="path22" style="fill:#29459f;fill-opacity:1;fill-rule:nonzero;stroke:none"></path><path d="m 404.332,196.039 c 0,2.613 2.094,4.969 4.965,4.969 h 106.266 c 2.871,0 4.949,-2.356 4.949,-4.969 v -21.402 c 0,-2.614 -2.078,-4.969 -4.949,-4.969 h -77.286 v -42.816 h 64.489 c 2.609,0 4.949,-2.352 4.949,-4.954 v -21.679 c 0,-2.8674 -2.34,-4.9573 -4.949,-4.9573 H 438.277 V 49.5703 h 77.286 c 2.871,0 4.949,-2.3515 4.949,-4.9609 v -21.418 c 0,-2.6016 -2.078,-4.9531 -4.949,-4.9531 H 409.297 c -2.871,0 -4.965,2.3515 -4.965,4.9531 V 196.039" id="path24" style="fill:#29459f;fill-opacity:1;fill-rule:nonzero;stroke:none"></path><path d="M 704.293,80.6406 678.18,138.078 h -0.785 L 651.809,80.6406 Z M 591.488,25.0195 672.699,200.742 c 0.785,1.571 2.086,2.875 4.442,2.875 h 2.609 c 2.609,0 3.652,-1.304 4.438,-2.875 L 764.602,25.0195 c 1.566,-3.3906 -0.52,-6.7812 -4.442,-6.7812 h -22.703 c -3.926,0 -5.754,1.5703 -7.578,5.2226 l -12.801,28.1993 h -78.07 L 626.223,23.4609 c -1.043,-2.6093 -3.395,-5.2226 -7.563,-5.2226 h -22.73 c -3.914,0 -6.008,3.3906 -4.442,6.7812" id="path26" style="fill:#29459f;fill-opacity:1;fill-rule:nonzero;stroke:none"></path><path d="m 840.559,196.039 c 0,2.613 2.078,4.969 4.949,4.969 h 24.027 c 2.598,0 4.953,-2.356 4.953,-4.969 V 49.5703 h 66.582 c 2.871,0 4.965,-2.3515 4.965,-4.9609 v -21.418 c 0,-2.6016 -2.094,-4.9531 -4.965,-4.9531 h -95.562 c -2.871,0 -4.949,2.3515 -4.949,4.9531 V 196.039" id="path28" style="fill:#29459f;fill-opacity:1;fill-rule:nonzero;stroke:none"></path><path d="m 1059.58,169.668 h -39.94 c -2.88,0 -4.97,2.355 -4.97,4.969 v 21.402 c 0,2.613 2.09,4.969 4.97,4.969 h 114.09 c 2.87,0 4.96,-2.356 4.96,-4.969 v -21.402 c 0,-2.614 -2.09,-4.969 -4.96,-4.969 h -39.95 V 23.1914 c 0,-2.6016 -2.35,-4.9531 -4.96,-4.9531 h -24.29 c -2.6,0 -4.95,2.3515 -4.95,4.9531 V 169.668" id="path30" style="fill:#29459f;fill-opacity:1;fill-rule:nonzero;stroke:none"></path><path d="m 1282.53,106.23 -59.53,87.2 c -2.1,3.394 0,7.578 4.16,7.578 h 26.63 c 2.1,0 3.41,-1.309 4.2,-2.356 l 41.77,-60.05 41.76,60.05 c 0.79,1.047 2.1,2.356 4.18,2.356 h 26.89 c 4.19,0 6.28,-4.184 4.19,-7.578 l -60.32,-86.942 V 23.1914 c 0,-2.6016 -2.35,-4.9531 -4.96,-4.9531 h -24.01 c -2.88,0 -4.96,2.3515 -4.96,4.9531 V 106.23" id="path32" style="fill:#29459f;fill-opacity:1;fill-rule:nonzero;stroke:none"></path><path d="m 2125.48,1089.7 v 65.36 h -23.34 v 13.31 h 62.52 v -13.31 h -23.29 v -65.36 h -15.89" id="path34" style="fill:#29459f;fill-opacity:1;fill-rule:nonzero;stroke:none"></path><path d="m 2174.69,1089.7 v 78.67 h 23.77 l 14.28,-53.66 14.11,53.66 h 23.83 v -78.67 h -14.76 v 61.93 l -15.62,-61.93 h -15.29 l -15.56,61.93 v -61.93 h -14.76" id="path36" style="fill:#29459f;fill-opacity:1;fill-rule:nonzero;stroke:none"></path></g></g></svg>