<svg xmlns="http://www.w3.org/2000/svg" width="1546" height="521"><g fill="#282826"><path d="M1540.6 1.1H1473v5l.2 443.8-217.2-1.5h-4.2V520h293.3V1.1z"/><path fill-rule="evenodd" d="M1191.4 167.9v198.5c0 38.4-9.8 66.6-32 91.3-28.6 31.7-77 54.9-120.6 57.3-9.3.9-19.2 1.2-29.4 1.2-12.6 0-23.3-.3-32.9-1.1-57.4-2.3-97.6-17.1-126.7-46.6-25.3-25.7-36.1-56-36.1-101.2 0-48.7 14-83.2 44-108.6 30.6-25.9 71.5-38.1 128.3-38.1h137v-46.4c0-36-9.2-61.8-28.2-79-19.5-17.6-49.3-26.3-91.2-26.3-54.9 0-94.7 18-121.3 55l-3.2 4.4-3.9-3.6-44.8-42.4-3-2.9 2.5-3.3c22.8-29.1 48-48.8 76.9-60.5 27.9-11 57.5-15.6 99-15.6 68.7 0 114.5 13 144.3 41.3 28.3 26.8 41.5 67.1 41.3 126.6M992.1 282.1c-38 0-67.1 7.6-86.7 21.9-19.7 14.4-29.6 36.3-29.6 64.7 0 27.4 9.7 48.3 29 61.9 19.3 13.8 48.9 20.9 87.8 20.9 51 0 87.1-10.9 110.4-33.3 11.9-11.4 19.9-30.3 19.9-85.7v-50.4zm-544.9 13.2v46.9c0 36.1 9.2 61.9 28.2 79.1 19.5 17.6 49.3 26.3 91.2 26.3 54.9 0 94.7-18.1 121.3-55.1l3.2-4.4 3.9 3.7 44.8 42.4 3.2 2.9-2.6 3.3c-22.8 29.1-48 48.8-76.9 60.5-27.9 10.9-57.4 15.6-99 15.6-68.7 0-114.5-13.1-144.3-41.3-28.3-26.9-41.5-67.2-41.5-126.9V149.9c0-38.5 9.9-66.6 32.1-91.3 28.5-31.8 77-54.9 120.5-57.4C540.7.4 550.6 0 560.8 0c12.6 0 23.3.4 32.9 1.1 57.4 2.3 97.6 17.2 126.7 46.6 25.3 25.8 36 56 36 101.2 0 48.7-13.9 83.2-43.9 108.5-30.6 26-71.5 37.9-128.3 37.9zm0-61.5H578c38 0 67.1-7.3 86.7-21.7s29.6-36 29.6-64.4c0-27.4-9.7-48.3-29-62-19.4-13.7-48.9-20.8-87.8-20.8-51 0-87.1 10.8-110.4 33.2-11.9 11.5-19.9 30.3-19.9 85.7z"/><path d="M291.6 1.1H0V520h72.1v-6.2L71.9 70l217.2 1.5h4.2V1.1z"/></g></svg>